# xmcd CD database file
#
# Track frame offsets:
#	150
#	21462
#	40003
#	55693
#	88967
#	106150
#	125297
#	155213
#	171978
#	187059
#	203122
#	225538
#	239431
#	270897
#	289847
#
# Disc length: 4285 seconds
#
# Revision: 0
# Processed by: cddbd v1.5PL3 Copyright (c) Steve Scherf et al.
# Submitted via: CDex 1.51
#
DISCID=d110bb0f
DTITLE=Blueskraft - Never Too Late
DYEAR=1998
DGENRE=Blues
TTITLE0=So Many Mountains
TTITLE1=Chicago Bound
TTITLE2=Key To The Highway
TTITLE3=Taers She Cried
TTITLE4=Ida Mae
TTITLE5=Long Tall Sally
TTITLE6=Rivertime
TTITLE7=Watch Out
TTITLE8=Rollin' And Tumblin' (Intro)
TTITLE9=Rollin' And Tumblin
TTITLE10=Grown up Woman Blues
TTITLE11=Driving Wheel
TTITLE12=Ain't Nobodies Business If I Do
TTITLE13=Bony Moronie
TTITLE14=Never Too Late
EXTD=YEAR: 1998
EXTT0=
EXTT1=
EXTT2=
EXTT3=
EXTT4=
EXTT5=
EXTT6=
EXTT7=
EXTT8=
EXTT9=
EXTT10=
EXTT11=
EXTT12=
EXTT13=
EXTT14=
PLAYORDER=
